# Blender v2.91.0 OBJ File: ''
# www.blender.org
mtllib CarPart1.mtl
o Car_Carrosserie
v -0.411676 1.922630 1.177997
v 0.000000 1.924412 1.177997
v 0.000000 1.970769 0.450661
v -0.411676 1.954898 0.390634
v 0.000000 1.914221 -0.667141
v -0.411676 1.889916 -0.624603
v -0.438737 1.157934 -2.024037
v 0.000000 1.157934 -2.024037
v 0.000000 1.040831 -2.374715
v -0.359707 1.040831 -2.374715
v -0.489029 1.289627 -1.457842
v 0.000000 1.289627 -1.532475
v -0.959045 0.808999 -1.432416
v -0.787755 1.276997 -1.294977
v -0.857855 1.089742 -1.800878
v -0.959045 0.838485 -1.720586
v -0.865747 1.016626 -2.046489
v -0.959045 0.740138 -1.921962
v 0.000000 0.832766 -2.427742
v -0.359707 0.839378 -2.426056
v -0.868412 0.665568 -2.234358
v -0.959045 0.568844 -2.021738
v -0.959045 0.792990 1.405406
v -0.921453 1.121869 0.318182
v -0.959045 0.799708 0.318182
v -0.691887 1.746576 1.627648
v 0.000000 1.812685 1.622592
v 0.000000 0.975254 2.113680
v -0.652644 0.975254 2.113680
v -0.649495 0.839601 2.192011
v 0.000000 0.859160 2.184162
v 0.000000 1.340880 2.016831
v -0.658068 1.341834 1.982883
v -0.660899 1.219812 2.022308
v 0.000000 1.212225 2.050910
v -0.698250 1.027388 -2.192426
v -0.720448 1.889326 0.372221
v -0.703641 1.834036 -0.503149
v -0.719101 1.874275 1.141228
v -0.846135 1.224334 -1.022187
v -0.817843 1.318070 -1.016979
v -0.784158 1.785013 0.334697
v -0.782832 1.784708 0.480464
v -0.877537 1.301943 0.299359
v -0.899261 1.311126 0.454471
v -0.784397 1.766626 1.098776
v -0.892014 1.533586 1.289518
v -0.959045 0.839858 1.650160
v -0.927631 1.191624 1.428432
v -0.906333 1.357513 1.675929
v -0.911379 1.373617 1.313717
v -0.916992 1.200732 1.759928
v -0.927423 1.036096 1.829964
v -0.918266 0.955822 2.035506
v -0.891553 0.807727 2.120170
v -0.964068 0.697967 1.915745
v -0.744831 1.752361 -0.447543
v -0.899086 1.229095 1.917943
v -0.895152 1.343235 1.893830
v -0.594302 0.823104 -2.336758
v 0.411676 1.922630 1.177997
v 0.411676 1.954898 0.390634
v 0.411676 1.889916 -0.624603
v 0.438737 1.157934 -2.024037
v 0.359707 1.040831 -2.374715
v 0.489029 1.289627 -1.457842
v 0.959045 0.808999 -1.432416
v 0.959045 0.838485 -1.720586
v 0.857855 1.089742 -1.800878
v 0.787755 1.276997 -1.294977
v 0.959045 0.740138 -1.921962
v 0.865747 1.016626 -2.046489
v 0.359707 0.839378 -2.426056
v 0.959045 0.568844 -2.021738
v 0.868412 0.665568 -2.234358
v 0.959045 0.792990 1.405406
v 0.959045 0.799708 0.318182
v 0.921453 1.121869 0.318182
v 0.691887 1.746576 1.627648
v 0.649495 0.839601 2.192011
v 0.652644 0.975254 2.113680
v 0.660899 1.219812 2.022308
v 0.658068 1.341834 1.982883
v 0.698250 1.027388 -2.192426
v 0.720448 1.889326 0.372221
v 0.703641 1.834036 -0.503149
v 0.719101 1.874275 1.141228
v 0.817843 1.318070 -1.016979
v 0.846135 1.224334 -1.022187
v 0.782832 1.784708 0.480464
v 0.784158 1.785013 0.334697
v 0.877537 1.301943 0.299359
v 0.899261 1.311126 0.454471
v 0.892014 1.533586 1.289518
v 0.784397 1.766626 1.098776
v 0.959045 0.839858 1.650160
v 0.927631 1.191624 1.428432
v 0.906333 1.357513 1.675929
v 0.916992 1.200732 1.759928
v 0.911379 1.373617 1.313717
v 0.927423 1.036096 1.829964
v 0.918266 0.955822 2.035506
v 0.891553 0.807727 2.120170
v 0.964068 0.697967 1.915745
v 0.744831 1.752361 -0.447543
v 0.899086 1.229095 1.917943
v 0.895152 1.343235 1.893830
v 0.594302 0.823104 -2.336758
vt 0.279622 0.422385
vt 0.278388 0.422463
vt 0.278470 0.419868
vt 0.279732 0.419798
vt 0.279073 0.416539
vt 0.280254 0.416883
vt 0.264200 0.435898
vt 0.263119 0.435207
vt 0.263861 0.434081
vt 0.264487 0.434803
vt 0.281836 0.413505
vt 0.280361 0.412917
vt 0.281134 0.410985
vt 0.282330 0.411543
vt 0.259990 0.470352
vt 0.258019 0.471061
vt 0.258744 0.469117
vt 0.259751 0.469237
vt 0.258860 0.468417
vt 0.259734 0.468453
vt 0.309189 0.456695
vt 0.309126 0.456623
vt 0.309192 0.456584
vt 0.309235 0.456664
vt 0.309363 0.456830
vt 0.309276 0.456826
vt 0.309326 0.456755
vt 0.309371 0.456778
vt 0.283995 0.423742
vt 0.283203 0.419698
vt 0.284286 0.419601
vt 0.280619 0.423704
vt 0.278598 0.424162
vt 0.286913 0.396698
vt 0.287044 0.396561
vt 0.287075 0.396579
vt 0.286950 0.396729
vt 0.270318 0.475870
vt 0.271899 0.474629
vt 0.272120 0.474941
vt 0.270651 0.476267
vt 0.282718 0.414584
vt 0.283443 0.412640
vt 0.270991 0.431921
vt 0.277388 0.436397
vt 0.277388 0.442536
vt 0.272450 0.438708
vt 0.270080 0.435983
vt 0.280569 0.419832
vt 0.281186 0.417156
vt 0.280373 0.422273
vt 0.258097 0.471933
vt 0.257760 0.471951
vt 0.280969 0.419747
vt 0.280924 0.420214
vt 0.282630 0.419794
vt 0.282557 0.420299
vt 0.280749 0.422182
vt 0.281805 0.423083
vt 0.283554 0.424601
vt 0.282551 0.423539
vt 0.257104 0.480549
vt 0.257333 0.479466
vt 0.257852 0.480016
vt 0.257506 0.480946
vt 0.282578 0.424846
vt 0.282413 0.425481
vt 0.287107 0.396505
vt 0.287124 0.396550
vt 0.287221 0.396417
vt 0.287190 0.396523
vt 0.281803 0.424072
vt 0.282032 0.422989
vt 0.281308 0.417314
vt 0.282459 0.415474
vt 0.257087 0.481260
vt 0.256825 0.481755
vt 0.256479 0.481575
vt 0.256958 0.481116
vt 0.309269 0.456723
vt 0.309249 0.456781
vt 0.258504 0.476175
vt 0.282205 0.424469
vt 0.257858 0.476776
vt 0.257931 0.476271
vt 0.279847 0.426680
vt 0.281316 0.425354
vt 0.281775 0.426044
vt 0.280461 0.427412
vt 0.284689 0.413875
vt 0.279622 0.422385
vt 0.279732 0.419798
vt 0.280254 0.416883
vt 0.264200 0.435898
vt 0.264487 0.434803
vt 0.281836 0.413505
vt 0.282330 0.411543
vt 0.259990 0.470352
vt 0.259751 0.469237
vt 0.258744 0.469117
vt 0.258019 0.471061
vt 0.259734 0.468453
vt 0.258860 0.468417
vt 0.309189 0.456695
vt 0.309235 0.456664
vt 0.309363 0.456830
vt 0.309371 0.456778
vt 0.309326 0.456755
vt 0.309276 0.456826
vt 0.283995 0.423742
vt 0.284286 0.419601
vt 0.283203 0.419698
vt 0.280619 0.423704
vt 0.287075 0.396579
vt 0.287044 0.396561
vt 0.272120 0.474941
vt 0.271899 0.474629
vt 0.282718 0.414584
vt 0.283443 0.412640
vt 0.270991 0.431921
vt 0.270080 0.435983
vt 0.272450 0.438708
vt 0.277388 0.442536
vt 0.277388 0.436397
vt 0.280569 0.419832
vt 0.281186 0.417156
vt 0.280373 0.422273
vt 0.257760 0.471951
vt 0.258097 0.471933
vt 0.280924 0.420214
vt 0.280969 0.419747
vt 0.282630 0.419794
vt 0.282557 0.420299
vt 0.281805 0.423083
vt 0.280749 0.422182
vt 0.283554 0.424601
vt 0.282551 0.423539
vt 0.257104 0.480549
vt 0.257506 0.480946
vt 0.257852 0.480016
vt 0.257333 0.479466
vt 0.282578 0.424846
vt 0.282413 0.425481
vt 0.287124 0.396550
vt 0.287107 0.396505
vt 0.287190 0.396523
vt 0.287221 0.396417
vt 0.281803 0.424072
vt 0.282032 0.422989
vt 0.281308 0.417314
vt 0.282459 0.415474
vt 0.257087 0.481260
vt 0.256958 0.481116
vt 0.256479 0.481575
vt 0.256825 0.481755
vt 0.309249 0.456781
vt 0.309269 0.456723
vt 0.258504 0.476175
vt 0.282205 0.424469
vt 0.257931 0.476271
vt 0.257858 0.476776
vt 0.281775 0.426044
vt 0.281316 0.425354
vt 0.284689 0.413875
vn -0.1018 0.9810 0.1651
vn -0.0000 0.9851 0.1720
vn 0.0000 1.0000 0.0025
vn -0.1168 0.9931 -0.0114
vn 0.0000 0.9984 -0.0569
vn -0.1149 0.9916 -0.0600
vn -0.1415 0.9478 -0.2858
vn 0.0000 0.9600 -0.2798
vn 0.0000 0.9485 -0.3167
vn -0.0909 0.9453 -0.3134
vn -0.1627 0.9512 -0.2622
vn 0.0000 0.9702 -0.2425
vn -0.9436 0.3305 -0.0198
vn -0.9290 0.3579 -0.0937
vn -0.9422 0.3324 -0.0434
vn -0.9419 0.3333 -0.0409
vn -0.9477 0.2589 -0.1865
vn -0.9455 0.2338 -0.2268
vn -0.2212 0.2833 -0.9332
vn -0.0000 0.2470 -0.9690
vn -0.2126 0.2822 -0.9355
vn -0.9331 0.1771 -0.3130
vn -0.9965 0.0828 -0.0102
vn -0.9870 0.1578 -0.0294
vn -0.9933 0.1159 0.0007
vn -0.1031 0.9548 0.2788
vn 0.0000 0.9570 0.2900
vn 0.0000 0.4093 0.9124
vn -0.1106 0.4275 0.8972
vn -0.1482 0.4865 0.8610
vn 0.0000 0.5088 0.8609
vn -0.0000 0.2818 0.9595
vn -0.2088 0.2699 0.9400
vn -0.1374 0.2834 0.9491
vn -0.0000 0.2934 0.9560
vn -0.2508 0.9291 -0.2718
vn -0.2569 0.9242 -0.2826
vn -0.2664 0.9162 -0.2994
vn -0.1969 0.9802 -0.0186
vn -0.2083 0.9760 -0.0639
vn -0.1837 0.9735 0.1366
vn -0.9474 0.3086 -0.0850
vn -0.9302 0.3346 -0.1508
vn -0.8623 0.5061 -0.0158
vn -0.9121 0.4075 -0.0447
vn -0.9044 0.4264 -0.0160
vn -0.9709 0.2242 -0.0846
vn -0.9844 0.1654 -0.0606
vn -0.8535 0.5111 0.1016
vn -0.8538 0.5117 0.0959
vn -0.8800 0.4478 0.1582
vn -0.8780 0.4515 0.1588
vn -0.9942 0.0940 0.0531
vn -0.9957 0.0926 0.0061
vn -0.9787 0.1909 0.0757
vn -0.9751 0.2153 0.0540
vn -0.9944 0.0928 0.0509
vn -0.9930 0.0909 0.0754
vn -0.9864 0.1010 0.1297
vn -0.2945 0.4525 0.8417
vn -0.9833 0.1057 0.1484
vn -0.8970 0.4308 -0.0990
vn -0.9042 0.4118 -0.1133
vn -0.3599 0.2520 0.8983
vn -0.9938 0.0830 0.0738
vn -0.4207 0.3044 -0.8546
vn 0.1018 0.9810 0.1651
vn 0.1168 0.9931 -0.0114
vn 0.1149 0.9916 -0.0600
vn 0.1415 0.9478 -0.2858
vn 0.0909 0.9453 -0.3134
vn 0.1627 0.9512 -0.2622
vn 0.9436 0.3305 -0.0198
vn 0.9419 0.3333 -0.0409
vn 0.9422 0.3324 -0.0434
vn 0.9290 0.3579 -0.0937
vn 0.9455 0.2338 -0.2268
vn 0.9477 0.2589 -0.1865
vn 0.2212 0.2833 -0.9332
vn 0.2126 0.2822 -0.9355
vn 0.9331 0.1771 -0.3130
vn 0.9965 0.0828 -0.0102
vn 0.9933 0.1159 0.0007
vn 0.9870 0.1578 -0.0294
vn 0.1031 0.9548 0.2788
vn 0.1482 0.4865 0.8610
vn 0.1106 0.4275 0.8972
vn 0.1374 0.2834 0.9491
vn 0.2088 0.2699 0.9400
vn 0.2508 0.9291 -0.2718
vn 0.2569 0.9242 -0.2826
vn 0.2664 0.9162 -0.2994
vn 0.1969 0.9802 -0.0186
vn 0.2083 0.9760 -0.0639
vn 0.1837 0.9735 0.1366
vn 0.9302 0.3346 -0.1508
vn 0.9474 0.3086 -0.0850
vn 0.8623 0.5061 -0.0158
vn 0.9044 0.4264 -0.0160
vn 0.9121 0.4075 -0.0447
vn 0.9709 0.2242 -0.0846
vn 0.9844 0.1654 -0.0606
vn 0.8535 0.5111 0.1016
vn 0.8780 0.4516 0.1588
vn 0.8800 0.4478 0.1582
vn 0.8538 0.5117 0.0959
vn 0.9942 0.0940 0.0531
vn 0.9957 0.0926 0.0061
vn 0.9787 0.1909 0.0757
vn 0.9944 0.0928 0.0509
vn 0.9751 0.2153 0.0540
vn 0.9930 0.0909 0.0754
vn 0.9864 0.1010 0.1297
vn 0.2945 0.4525 0.8417
vn 0.9833 0.1057 0.1484
vn 0.8970 0.4308 -0.0990
vn 0.9042 0.4118 -0.1133
vn 0.3599 0.2520 0.8983
vn 0.9938 0.0830 0.0738
vn 0.4207 0.3044 -0.8546
usemtl Material.002
s 1
f 1/1/1 2/2/2 3/3/3 4/4/4
f 4/4/4 3/3/3 5/5/5 6/6/6
f 7/7/7 8/8/8 9/9/9 10/10/10
f 11/11/11 12/12/12 8/13/8 7/14/7
f 13/15/13 14/16/14 15/17/15 16/18/16
f 16/18/16 15/17/15 17/19/17 18/20/18
f 10/21/19 9/22/20 19/23/20 20/24/21
f 18/25/18 17/26/17 21/27/22 22/28/22
f 23/29/23 24/30/24 25/31/25
f 2/2/2 1/1/1 26/32/26 27/33/27
f 28/34/28 29/35/29 30/36/30 31/37/31
f 32/38/32 33/39/33 34/40/34 35/41/35
f 14/42/36 11/11/11 7/14/7 15/43/37
f 15/44/37 7/45/7 10/46/10 36/47/38 17/48/38
f 37/49/39 4/4/4 6/6/6 38/50/40
f 39/51/41 1/1/1 4/4/4 37/49/39
f 14/16/14 40/52/42 41/53/43
f 37/49/44 42/54/45 43/55/46
f 44/56/47 45/57/48 43/55/46 42/54/45
f 1/1/1 39/51/41 26/32/26
f 39/51/49 46/58/50 47/59/51 26/32/52
f 48/60/53 49/61/54 24/30/24 23/29/23
f 13/15/13 40/52/42 14/16/14
f 50/62/55 51/63/56 49/64/54 52/65/57
f 53/66/58 48/60/53 54/67/59
f 30/36/30 29/35/29 54/68/60 55/69/60
f 54/68/59 48/70/53 56/71/61 55/69/61
f 50/72/55 26/32/52 47/59/51 51/73/56
f 57/74/62 42/54/45 37/49/44 38/50/63
f 39/51/49 37/49/44 43/55/46 46/58/50
f 41/75/43 57/74/62 38/50/63 14/42/14
f 58/76/64 34/77/34 33/78/33 59/79/64
f 59/79/65 50/62/55 52/65/57 58/76/65
f 20/24/21 60/80/66 36/81/66 10/21/19
f 13/15/13 24/82/24 40/52/42
f 52/83/57 48/60/53 53/66/58
f 52/83/57 49/61/54 48/60/53
f 24/82/24 45/84/48 44/85/47
f 24/82/24 49/64/54 51/63/56 45/84/48
f 40/52/42 24/82/24 44/85/47
f 35/86/35 34/87/34 29/88/29 28/89/28
f 25/31/25 24/30/24 13/90/13
f 61/91/67 62/92/68 3/3/3 2/2/2
f 62/92/68 63/93/69 5/5/5 3/3/3
f 64/94/70 65/95/71 9/9/9 8/8/8
f 66/96/72 64/97/70 8/13/8 12/12/12
f 67/98/73 68/99/74 69/100/75 70/101/76
f 68/99/74 71/102/77 72/103/78 69/100/75
f 65/104/79 73/105/80 19/23/20 9/22/20
f 71/106/77 74/107/81 75/108/81 72/109/78
f 76/110/82 77/111/83 78/112/84
f 2/2/2 27/33/27 79/113/85 61/91/67
f 28/34/28 31/37/31 80/114/86 81/115/87
f 32/38/32 35/41/35 82/116/88 83/117/89
f 70/118/90 69/119/91 64/97/70 66/96/72
f 69/120/91 72/121/92 84/122/92 65/123/71 64/124/70
f 85/125/93 86/126/94 63/93/69 62/92/68
f 87/127/95 85/125/93 62/92/68 61/91/67
f 70/101/76 88/128/96 89/129/97
f 85/125/98 90/130/99 91/131/100
f 92/132/101 91/131/100 90/130/99 93/133/102
f 61/91/67 79/113/85 87/127/95
f 87/127/103 79/113/104 94/134/105 95/135/106
f 96/136/107 76/110/82 78/112/84 97/137/108
f 67/98/73 70/101/76 89/129/97
f 98/138/109 99/139/110 97/140/108 100/141/111
f 101/142/112 102/143/113 96/136/107
f 80/114/86 103/144/114 102/145/114 81/115/87
f 102/145/113 103/144/115 104/146/115 96/147/107
f 98/148/109 100/149/111 94/134/105 79/113/104
f 105/150/116 86/126/117 85/125/98 91/131/100
f 87/127/103 95/135/106 90/130/99 85/125/98
f 88/151/96 70/118/76 86/126/117 105/150/116
f 106/152/118 107/153/118 83/154/89 82/155/88
f 107/153/119 106/152/119 99/139/110 98/138/109
f 73/105/80 65/104/79 84/156/120 108/157/120
f 67/98/73 89/129/97 78/158/84
f 99/159/110 101/142/112 96/136/107
f 99/159/110 96/136/107 97/137/108
f 78/158/84 92/160/101 93/161/102
f 78/158/84 93/161/102 100/141/111 97/140/108
f 89/129/97 92/160/101 78/158/84
f 35/86/35 28/89/28 81/162/87 82/163/88
f 77/111/83 67/164/73 78/112/84
