# Blender v3.3.10 OBJ File: 'ShibuyaAssets.blend'
# www.blender.org
mtllib ShibuyaCharacter_01.mtl
o Character_01_Cylinder
v -0.288579 0.000000 -0.000000
v -0.400000 0.346948 -0.000000
v -0.265979 0.818855 -0.000000
v -0.358421 0.653291 -0.000000
v -0.144290 0.000000 -0.249917
v -0.200000 0.346948 -0.346410
v -0.132990 0.818855 -0.190979
v -0.179210 0.653291 -0.298188
v 0.144290 0.000000 -0.249917
v 0.200000 0.346948 -0.346410
v 0.132990 0.818855 -0.190979
v 0.179210 0.653291 -0.298188
v 0.288579 0.000000 0.000000
v 0.400000 0.346948 0.000000
v 0.265979 0.818855 0.000000
v 0.358421 0.653291 0.000000
v 0.144290 0.000000 0.249917
v 0.200000 0.346948 0.346410
v 0.132990 0.818855 0.190979
v 0.179210 0.653291 0.298188
v -0.144290 0.000000 0.249917
v -0.200000 0.346948 0.346410
v -0.132990 0.818855 0.190979
v -0.179210 0.653291 0.298188
v -0.196563 1.452130 0.000000
v -0.115572 1.452130 -0.165966
v 0.115572 1.452130 -0.165966
v 0.231143 1.452130 0.000000
v 0.115572 1.452130 0.165966
v -0.115572 1.452130 0.165966
v -0.198169 1.259325 0.284580
v -0.206209 1.001807 0.296125
v -0.346392 1.001807 0.000000
v -0.330313 1.259325 0.000000
v -0.198169 1.259325 -0.284580
v -0.206209 1.001807 -0.296125
v 0.206209 1.001807 -0.296125
v 0.198169 1.259325 -0.284580
v 0.198169 1.259325 0.284580
v 0.206209 1.001807 0.296125
v 0.331815 1.334633 0.000000
v 0.352888 1.001807 0.000000
vt 0.041541 0.086269
vt 0.042230 0.123972
vt 0.048169 0.123972
vt 0.048169 0.086269
vt 0.054797 0.086269
vt 0.054108 0.123972
vt 0.048169 0.123972
vt 0.048169 0.086269
vt 0.042230 0.123972
vt 0.041541 0.086269
vt 0.054797 0.086269
vt 0.054108 0.123972
vt 0.940487 0.382943
vt 0.927075 0.382943
vt 0.927075 0.418126
vt 0.947871 0.418126
vt 0.044263 0.053369
vt 0.054393 0.053369
vt 0.051571 0.029017
vt 0.044263 0.029017
vt 0.048169 0.132712
vt 0.052576 0.132712
vt 0.054393 0.053369
vt 0.051571 0.029017
vt 0.052576 0.132712
vt 0.044263 0.053369
vt 0.044263 0.029017
vt 0.048169 0.132712
vt 0.034132 0.053369
vt 0.036954 0.029017
vt 0.043762 0.132712
vt 0.034132 0.053369
vt 0.036954 0.029017
vt 0.043762 0.132712
vt 0.622661 0.099864
vt 0.615638 0.099864
vt 0.608615 0.099864
vt 0.608615 0.099864
vt 0.615638 0.099864
vt 0.622661 0.099864
vt 0.927075 0.382943
vt 0.940487 0.382943
vt 0.947871 0.418126
vt 0.927075 0.418126
vt 0.615638 0.073065
vt 0.603596 0.073065
vt 0.913663 0.382943
vt 0.906279 0.418126
vt 0.603596 0.073065
vt 0.615638 0.083533
vt 0.627680 0.073065
vt 0.627680 0.073065
vt 0.913663 0.382943
vt 0.906279 0.418126
vt 0.947060 0.467650
vt 0.927075 0.482670
vt 0.907090 0.467650
vt 0.628169 0.037272
vt 0.615638 0.037272
vt 0.603108 0.037272
vt 0.603108 0.037272
vt 0.628169 0.037272
vn -0.4946 -0.0689 0.8664
vn -0.4597 0.3468 0.8176
vn -0.9454 0.3259 -0.0000
vn -0.9971 -0.0765 -0.0000
vn 0.4946 -0.0689 -0.8664
vn 0.4597 0.3468 -0.8176
vn 0.9454 0.3259 0.0000
vn 0.9971 -0.0765 0.0000
vn 0.4597 0.3468 0.8176
vn 0.4946 -0.0689 0.8664
vn -0.4946 -0.0689 -0.8664
vn -0.4597 0.3468 -0.8176
vn -0.4986 0.0190 -0.8666
vn -0.9998 0.0177 -0.0000
vn -0.9762 -0.2169 -0.0000
vn -0.5167 -0.2260 -0.8258
vn -0.3450 -0.7238 -0.5975
vn -0.6900 -0.7238 -0.0000
vn 0.3450 -0.7238 -0.5975
vn 0.4957 0.0154 -0.8683
vn 0.6900 -0.7238 0.0000
vn 1.0000 0.0079 0.0000
vn 0.3450 -0.7238 0.5975
vn 0.4957 0.0154 0.8683
vn -0.3450 -0.7238 0.5975
vn -0.4986 0.0190 0.8666
vn -0.2925 0.8301 -0.4748
vn -0.5520 0.8338 -0.0000
vn -0.2925 0.8301 0.4748
vn 0.2379 0.8379 0.4913
vn 0.5320 0.8467 0.0000
vn 0.2379 0.8379 -0.4913
vn 0.5106 -0.2285 -0.8289
vn 0.9750 -0.2224 0.0000
vn -0.9511 0.3090 -0.0000
vn -0.5109 0.3129 0.8007
vn 0.5106 -0.2285 0.8289
vn 0.4907 0.2959 0.8196
vn 0.9231 0.3845 0.0000
vn 0.4907 0.2959 -0.8196
vn -0.5109 0.3129 -0.8007
vn -0.5167 -0.2260 0.8258
usemtl MAT_GRADIENT_TREE
s 1
f 22/1/1 24/2/2 4/3/3 2/4/4
f 10/5/5 12/6/6 16/7/7 14/8/8
f 14/8/8 16/7/7 20/9/9 18/10/10
f 18/10/10 20/9/9 24/2/2 22/1/1
f 6/11/11 8/12/12 12/6/6 10/5/5
f 7/13/13 3/14/14 33/15/15 36/16/16
f 2/4/4 4/3/3 8/12/12 6/11/11
f 2/17/4 6/18/11 5/19/17 1/20/18
f 8/12/12 4/3/3 3/21/14 7/22/13
f 6/18/11 10/23/5 9/24/19 5/19/17
f 12/6/6 8/12/12 7/22/13 11/25/20
f 10/23/5 14/26/8 13/27/21 9/24/19
f 16/7/7 12/6/6 11/25/20 15/28/22
f 14/26/8 18/29/10 17/30/23 13/27/21
f 20/9/9 16/7/7 15/28/22 19/31/24
f 18/29/10 22/32/1 21/33/25 17/30/23
f 24/2/2 20/9/9 19/31/24 23/34/26
f 22/32/1 2/17/4 1/20/18 21/33/25
f 4/3/3 24/2/2 23/34/26 3/21/14
f 1/20/18 5/19/17 9/24/19 13/27/21 17/30/23 21/33/25
f 26/35/27 25/36/28 30/37/29 29/38/30 28/39/31 27/40/32
f 15/41/22 11/42/20 37/43/33 42/44/34
f 34/45/35 31/46/36 30/37/29 25/36/28
f 11/42/20 7/13/13 36/16/16 37/43/33
f 19/47/24 15/41/22 42/44/34 40/48/37
f 39/49/38 41/50/39 28/39/31 29/38/30
f 38/51/40 35/52/41 26/35/27 27/40/32
f 35/52/41 34/45/35 25/36/28 26/35/27
f 41/50/39 38/51/40 27/40/32 28/39/31
f 23/53/26 19/47/24 40/48/37 32/54/42
f 3/14/14 23/53/26 32/54/42 33/15/15
f 38/55/40 41/56/39 42/44/34 37/43/33
f 41/56/39 39/57/38 40/48/37 42/44/34
f 34/45/35 35/52/41 36/58/16 33/59/15
f 39/49/38 31/46/36 32/60/42 40/61/37
f 35/52/41 38/51/40 37/62/33 36/58/16
f 31/46/36 34/45/35 33/59/15 32/60/42
f 31/46/36 39/49/38 29/38/30 30/37/29
