# Blender 3.3.10
# www.blender.org
mtllib ShibuyaTree_01.mtl
o Tree_01
v 0.128972 0.009652 -0.319038
v 0.269518 0.009707 -0.187679
v 0.276007 0.009863 0.004033
v 0.144536 0.009954 0.144112
v -0.047840 0.009957 0.150372
v -0.188419 0.009877 0.019114
v -0.194911 0.009720 -0.172591
v -0.063411 0.009650 -0.312758
v 0.073045 0.284265 -0.279264
v 0.190195 0.284194 -0.169114
v 0.195787 0.284450 -0.009630
v 0.086385 0.284768 0.106256
v -0.074153 0.284799 0.111361
v -0.191611 0.284649 0.002155
v -0.197371 0.284273 -0.156814
v -0.087667 0.284171 -0.273628
v 0.240116 1.985932 -0.060165
v 0.157628 1.985597 -0.135571
v 0.244939 1.986764 0.048603
v 0.169254 1.987594 0.127066
v 0.057413 1.987947 0.129217
v -0.025055 1.987627 0.053746
v -0.029854 1.986811 -0.055091
v 0.045809 1.985966 -0.133490
v 0.329227 3.121605 -0.267192
v 0.259280 3.121957 -0.334592
v 0.334838 3.122039 -0.177087
v 0.272759 3.123081 -0.116975
v 0.178804 3.123829 -0.120468
v 0.108295 3.123883 -0.186241
v 0.102836 3.123480 -0.276739
v 0.165459 3.122727 -0.338429
v 0.061604 1.247605 -0.273907
v 0.164805 1.258764 -0.178609
v 0.172143 1.263636 -0.041602
v 0.078301 1.258560 0.060511
v -0.061856 1.246533 0.067944
v -0.164664 1.235639 -0.029081
v -0.171291 1.231235 -0.168668
v -0.077849 1.235999 -0.268997
v -1.434409 2.984762 0.610030
v -1.323115 2.913537 -0.260386
v -1.526963 4.288750 0.044361
v -1.708409 5.000629 0.014174
v -1.089619 3.350652 1.043087
v -0.741568 3.762873 0.823878
v -1.217907 4.717794 0.916535
v -0.507739 4.160215 0.946940
v -1.373886 5.002798 0.572790
v -0.950054 2.609715 0.535516
v -0.859994 2.381421 0.093235
v -1.131384 3.635105 -0.057722
v -1.322060 3.970863 0.494411
v -1.208930 5.320713 -0.048001
v -0.910961 5.891859 0.176512
v -0.965290 5.675430 -0.607536
v -0.072733 3.268204 1.128699
v -0.491550 4.721338 1.529406
v -0.596823 5.546046 0.821105
v -0.264091 5.417490 1.403188
v -0.393454 2.739948 0.490242
v -0.129200 2.582406 1.131487
v 0.100174 2.340102 0.487701
v -0.075491 6.159280 0.204010
v -1.540966 4.648155 -0.399098
v -1.142232 4.765086 -0.577546
v -0.718779 4.012762 -1.203835
v -0.122931 2.763073 -1.493196
v -0.400116 2.770946 -1.120636
v -1.071857 3.723987 -0.936591
v -0.288989 3.260875 -1.524649
v -0.777706 5.095632 -1.004775
v -0.225671 4.538846 -1.548135
v 0.443558 2.107887 -0.644584
v -0.446793 2.671151 -0.389053
v 0.394535 2.518600 -0.071378
v -0.371972 5.921077 -0.803274
v 0.385392 5.894087 -0.725898
v 0.037577 2.182817 -0.475978
v 0.386371 2.540745 -1.085241
v 0.226707 5.110868 -1.066921
v 0.420550 3.021198 -1.557932
v 0.344346 3.669058 -1.463606
v 0.992187 4.302078 -1.408006
v 0.195538 3.670225 1.411777
v 0.846160 3.052507 0.902478
v 0.772591 3.739469 1.245920
v 0.299213 4.130244 0.974304
v 0.234555 4.476099 1.425493
v 0.624419 5.089302 1.465248
v 0.392474 5.586123 0.760442
v 0.729154 2.355105 0.161416
v 0.580110 2.543391 1.100622
v 1.028186 4.250487 0.906705
v 1.144477 3.200063 0.775821
v 1.353512 3.883830 0.990295
v 0.798141 5.008624 1.147620
v 1.378503 4.723615 0.906841
v 1.506443 5.336270 0.465288
v 1.211319 2.832575 0.170918
v 0.946457 3.841476 -0.071441
v 0.993741 2.847653 -0.872332
v 0.821962 2.735555 -0.257762
v 0.854757 3.427338 -0.685952
v 1.200642 3.903573 -1.051164
v 0.862289 5.123790 -0.642694
v 0.895888 5.745700 0.012161
v 1.019768 4.897298 -1.064689
v 1.370829 3.629088 0.371674
v 1.281468 4.098633 0.368675
v 1.185750 3.747575 -0.379510
v 1.579116 4.509098 -0.434421
v 1.587646 4.445896 0.095150
vn 0.4097 -0.0449 0.9111
vn 0.9417 -0.0528 0.3322
vn 0.9210 -0.0629 0.3845
vn 0.3906 0.0164 0.9204
vn -0.3692 0.0180 0.9292
vn -0.3361 0.1005 0.9364
vn -0.9148 0.0839 0.3952
vn -0.8801 0.1538 0.4491
vn -0.9270 0.1185 -0.3559
vn -0.9389 0.1409 -0.3141
vn -0.4173 0.1148 -0.9015
vn -0.4079 0.0577 -0.9112
vn 0.3263 0.0736 -0.9424
vn 0.3771 -0.0385 -0.9254
vn -0.3811 0.0968 -0.9194
vn -0.4296 0.0488 -0.9017
vn 0.3329 0.1070 -0.9369
vn 0.3723 0.2078 -0.9045
vn -0.9310 0.0131 -0.3648
vn -0.9400 0.0166 -0.3408
vn -0.9036 0.0159 0.4280
vn -0.9116 0.0263 0.4103
vn -0.3192 0.1027 0.9421
vn -0.3656 0.0711 0.9281
vn 0.4288 0.2114 0.8783
vn 0.3934 0.1273 0.9105
vn 0.9024 0.2806 0.3271
vn 0.9209 0.1630 0.3540
vn 0.8790 0.2794 -0.3864
vn 0.8961 0.1549 -0.4160
vn 0.9182 -0.0896 -0.3859
vn 0.3653 -0.1929 -0.9107
vn 0.8839 -0.1511 -0.4426
vn 0.8956 0.0031 -0.4449
vn -0.3463 -0.1300 -0.9291
vn -0.9038 0.1868 0.3850
vn -0.9131 0.0283 -0.4068
vn 0.4126 0.1557 0.8975
vn -0.3540 0.2357 0.9051
vn 0.9512 -0.0128 0.3084
vn -0.8689 -0.3641 -0.3353
vn -0.8667 -0.2331 0.4409
vn -0.9988 0.0052 -0.0484
vn -0.4489 -0.2795 0.8487
vn -0.7905 -0.1691 0.5886
vn -0.5481 0.1977 0.8127
vn -0.7462 -0.1410 0.6506
vn -0.9228 -0.3830 -0.0429
vn -0.1087 -0.9917 -0.0687
vn -0.1329 -0.6425 0.7547
vn -0.5473 0.0757 0.8335
vn -0.8093 0.5832 -0.0698
vn -0.8004 0.3962 0.4499
vn -0.4179 0.7584 0.5002
vn -0.6510 0.7161 0.2517
vn -0.2734 -0.8807 0.3868
vn -0.2365 -0.2511 0.9386
vn -0.5068 -0.4817 0.7149
vn -0.0050 -0.0207 0.9998
vn 0.2863 -0.5375 0.7932
vn -0.3598 -0.1930 0.9129
vn 0.0399 0.9670 0.2518
vn 0.2759 0.8151 0.5093
vn -0.6244 -0.2141 -0.7512
vn -0.9190 0.3922 -0.0401
vn -0.7962 0.1012 -0.5965
vn -0.8496 -0.0564 -0.5245
vn -0.5315 0.2904 -0.7957
vn -0.5411 0.0361 -0.8402
vn -0.3126 -0.9475 -0.0674
vn -0.7103 0.5402 -0.4512
vn -0.5770 -0.6643 -0.4751
vn -0.3967 -0.0390 -0.9171
vn 0.2644 -0.0416 -0.9635
vn -0.3010 -0.6154 -0.7284
vn -0.0268 -0.9991 0.0336
vn -0.3130 -0.9461 -0.0833
vn 0.5987 0.7975 -0.0743
vn 0.3994 0.7045 -0.5867
vn -0.3869 -0.8964 0.2163
vn 0.2872 -0.9510 -0.1145
vn -0.1763 0.7418 -0.6471
vn 0.1761 0.5036 -0.8458
vn 0.4242 -0.1940 -0.8846
vn 0.9429 -0.2048 -0.2628
vn -0.2075 0.2200 -0.9532
vn 0.5672 0.0943 -0.8182
vn 0.3890 -0.5221 0.7590
vn 0.5425 -0.3056 0.7825
vn 0.5973 0.2290 0.7686
vn -0.1824 0.6698 0.7198
vn 0.1698 0.0639 0.9834
vn 0.5000 0.1029 0.8599
vn 0.6299 0.2007 0.7503
vn 0.8999 -0.3941 -0.1868
vn 0.7190 -0.4567 0.5239
vn 0.2539 0.0493 0.9660
vn 0.8057 0.1519 0.5726
vn 0.7194 -0.0915 0.6886
vn 0.9422 -0.3036 0.1416
vn 0.7937 0.5735 0.2028
vn 0.8598 -0.4791 -0.1766
vn 0.3497 -0.9156 -0.1982
vn 0.8832 -0.4603 -0.0903
vn 0.9431 -0.2686 -0.1959
vn 0.7752 -0.4048 -0.4850
vn 0.5387 0.6089 -0.5822
vn 0.6145 0.6246 -0.4819
vn 0.9835 -0.1809 0.0074
vn 0.9637 -0.0440 -0.2632
vn 0.9502 0.0683 -0.3042
vn 0.6711 -0.7037 0.2332
vn 0.2152 -0.7300 -0.6487
vt 0.049306 0.651426
vt 0.052079 0.651428
vt 0.052207 0.651435
vt 0.049613 0.651439
vt 0.045817 0.651439
vt 0.043044 0.651436
vt 0.042916 0.651429
vt 0.045510 0.651426
vt 0.048202 0.663486
vt 0.050514 0.663483
vt 0.050624 0.663494
vt 0.048466 0.663508
vt 0.045298 0.663510
vt 0.042981 0.663503
vt 0.042867 0.663487
vt 0.045032 0.663482
vt 0.051499 0.738221
vt 0.049871 0.738207
vt 0.051594 0.738258
vt 0.050101 0.738294
vt 0.047894 0.738310
vt 0.046267 0.738296
vt 0.046172 0.738260
vt 0.047665 0.738223
vt 0.053257 0.788099
vt 0.051877 0.788114
vt 0.053368 0.788118
vt 0.052143 0.788164
vt 0.050289 0.788196
vt 0.048898 0.788199
vt 0.048790 0.788181
vt 0.050026 0.788148
vt 0.047977 0.705795
vt 0.050013 0.706285
vt 0.050158 0.706499
vt 0.048306 0.706276
vt 0.045541 0.705748
vt 0.043512 0.705270
vt 0.043382 0.705076
vt 0.045225 0.705285
vt 0.275708 0.402192
vt 0.275139 0.403476
vt 0.276181 0.378683
vt 0.277108 0.365848
vt 0.273946 0.395596
vt 0.272168 0.388164
vt 0.274602 0.370947
vt 0.270973 0.381000
vt 0.275399 0.365809
vt 0.273233 0.408954
vt 0.272773 0.413070
vt 0.274160 0.390467
vt 0.275134 0.384414
vt 0.274556 0.360077
vt 0.273033 0.349780
vt 0.273311 0.353682
vt 0.268750 0.397082
vt 0.270890 0.370884
vt 0.271428 0.356015
vt 0.269728 0.358333
vt 0.270389 0.406606
vt 0.269039 0.409446
vt 0.267866 0.413815
vt 0.268764 0.344959
vt 0.276253 0.372203
vt 0.274215 0.370095
vt 0.272051 0.383658
vt 0.269007 0.406189
vt 0.270423 0.406047
vt 0.273855 0.388865
vt 0.269855 0.397214
vt 0.272352 0.364135
vt 0.269532 0.374174
vt 0.266112 0.418001
vt 0.270661 0.407846
vt 0.266362 0.410597
vt 0.270279 0.349254
vt 0.266409 0.349740
vt 0.268186 0.416651
vt 0.266404 0.410197
vt 0.267220 0.363861
vt 0.266229 0.401535
vt 0.266619 0.389855
vt 0.263308 0.378442
vt 0.267379 0.389834
vt 0.264055 0.400971
vt 0.264430 0.388586
vt 0.266849 0.381540
vt 0.267180 0.375305
vt 0.265188 0.364250
vt 0.266373 0.355292
vt 0.264652 0.413544
vt 0.265414 0.410150
vt 0.263124 0.379373
vt 0.262530 0.398311
vt 0.261462 0.385983
vt 0.264300 0.365704
vt 0.261334 0.370842
vt 0.260680 0.359797
vt 0.262189 0.404936
vt 0.263542 0.386747
vt 0.263300 0.404664
vt 0.264178 0.406685
vt 0.264011 0.394213
vt 0.262243 0.385627
vt 0.263972 0.363628
vt 0.263800 0.352415
vt 0.263167 0.367711
vt 0.261374 0.390576
vt 0.261830 0.382110
vt 0.262319 0.388440
vt 0.260309 0.374710
vt 0.260266 0.375849
s 1
usemtl MAT_GRADIENT_TREE
f 36/36/1 35/35/2 19/19/3 20/20/4
f 37/37/5 36/36/1 20/20/4 21/21/6
f 38/38/7 37/37/5 21/21/6 22/22/8
f 39/39/9 38/38/7 22/22/8 23/23/10
f 40/40/11 39/39/9 23/23/10 24/24/12
f 33/33/13 40/40/11 24/24/12 18/18/14
f 8/8/15 16/16/16 9/9/17 1/1/18
f 7/7/19 15/15/20 16/16/16 8/8/15
f 6/6/21 14/14/22 15/15/20 7/7/19
f 5/5/23 13/13/24 14/14/22 6/6/21
f 4/4/25 12/12/26 13/13/24 5/5/23
f 3/3/27 11/11/28 12/12/26 4/4/25
f 2/2/29 10/10/30 11/11/28 3/3/27
f 1/1/18 9/9/17 10/10/30 2/2/29
f 17/17/31 18/18/14 26/26/32 25/25/33
f 35/35/2 34/34/34 17/17/31 19/19/3
f 18/18/14 24/24/12 32/32/35 26/26/32
f 23/23/10 22/22/8 30/30/36 31/31/37
f 21/21/6 20/20/4 28/28/38 29/29/39
f 19/19/3 17/17/31 25/25/33 27/27/40
f 24/24/12 23/23/10 31/31/37 32/32/35
f 22/22/8 21/21/6 29/29/39 30/30/36
f 20/20/4 19/19/3 27/27/40 28/28/38
f 16/16/16 40/40/11 33/33/13 9/9/17
f 15/15/20 39/39/9 40/40/11 16/16/16
f 14/14/22 38/38/7 39/39/9 15/15/20
f 13/13/24 37/37/5 38/38/7 14/14/22
f 12/12/26 36/36/1 37/37/5 13/13/24
f 11/11/28 35/35/2 36/36/1 12/12/26
f 10/10/30 34/34/34 35/35/2 11/11/28
f 9/9/17 33/33/13 34/34/34 10/10/30
f 34/34/34 33/33/13 18/18/14 17/17/31
f 42/42/41 41/41/42 52/52/43
f 48/48/44 53/53/45 46/46/46
f 47/47/47 43/43/48 48/48/44
f 51/51/49 50/50/50 41/41/42
f 41/41/42 45/45/51 52/52/43
f 43/43/48 52/52/43 53/53/45
f 53/53/45 52/52/43 46/46/46
f 52/52/43 45/45/51 46/46/46
f 54/54/52 49/49/53 59/59/54
f 54/54/52 59/59/54 55/55/55
f 41/41/42 61/61/56 45/45/51
f 46/46/46 45/45/51 57/57/57
f 61/61/56 57/57/57 45/45/51
f 61/61/56 62/62/58 57/57/57
f 85/85/59 46/46/46 57/57/57
f 48/48/44 89/89/60 58/58/61
f 64/64/62 59/59/54 91/91/63
f 65/65/64 43/43/48 44/44/65
f 66/66/66 43/43/48 65/65/64
f 44/44/65 54/54/52 66/66/66
f 70/70/67 66/66/66 72/72/68
f 72/72/68 67/67/69 70/70/67
f 75/75/70 51/51/49 42/42/41
f 52/52/43 43/43/48 66/66/66
f 66/66/66 54/54/52 56/56/71
f 54/54/52 55/55/55 56/56/71
f 69/69/72 70/70/67 71/71/73
f 75/75/70 42/42/41 69/69/72
f 67/67/69 83/83/74 71/71/73
f 56/56/71 72/72/68 66/66/66
f 68/68/75 69/69/72 71/71/73
f 75/75/70 61/61/56 51/51/49
f 76/76/76 63/63/77 61/61/56
f 64/64/62 107/107/78 78/78/79
f 79/79/80 75/75/70 69/69/72
f 74/74/81 79/79/80 69/69/72
f 77/77/82 81/81/83 72/72/68
f 78/78/79 81/81/83 77/77/82
f 82/82/84 68/68/75 71/71/73
f 83/83/74 102/102/85 82/82/84
f 73/73/86 84/84/87 83/83/74
f 57/57/57 93/93/88 86/86/89
f 90/90/90 58/58/61 89/89/60
f 60/60/91 58/58/61 90/90/90
f 88/88/92 94/94/93 97/97/94
f 91/91/63 90/90/90 97/97/94
f 107/107/78 64/64/62 91/91/63
f 100/100/95 95/95/96 86/86/89
f 94/94/93 87/87/97 96/96/98
f 96/96/98 87/87/97 95/95/96
f 97/97/94 94/94/93 98/98/99
f 113/113/100 98/98/99 94/94/93
f 99/99/101 97/97/94 98/98/99
f 91/91/63 97/97/94 99/99/101
f 79/79/80 74/74/81 76/76/76
f 103/103/102 92/92/103 76/76/76
f 92/92/103 100/100/95 93/93/88
f 103/103/102 100/100/95 92/92/103
f 100/100/95 103/103/102 101/101/104
f 103/103/102 76/76/76 74/74/81
f 102/102/85 104/104/105 103/103/102
f 102/102/85 83/83/74 104/104/105
f 105/105/106 83/83/74 84/84/87
f 84/84/87 81/81/83 108/108/107
f 108/108/107 81/81/83 106/106/108
f 101/101/104 110/110/109 109/109/110
f 113/113/100 110/110/109 101/101/104
f 99/99/101 106/106/108 107/107/78
f 99/99/101 113/113/100 112/112/111
f 113/113/100 99/99/101 98/98/99
f 112/112/111 111/111/112 105/105/106
f 112/112/111 113/113/100 111/111/112
f 99/99/101 112/112/111 106/106/108
f 42/42/41 51/51/49 41/41/42
f 49/49/53 44/44/65 43/43/48
f 43/43/48 47/47/47 49/49/53
f 48/48/44 43/43/48 53/53/45
f 44/44/65 49/49/53 54/54/52
f 85/85/59 48/48/44 46/46/46
f 48/48/44 58/58/61 47/47/47
f 60/60/91 49/49/53 47/47/47
f 59/59/54 49/49/53 60/60/91
f 60/60/91 47/47/47 58/58/61
f 91/91/63 59/59/54 60/60/91
f 41/41/42 50/50/50 61/61/56
f 50/50/50 51/51/49 61/61/56
f 61/61/56 63/63/77 62/62/58
f 64/64/62 55/55/55 59/59/54
f 65/65/64 44/44/65 66/66/66
f 70/70/67 42/42/41 52/52/43
f 66/66/66 70/70/67 52/52/43
f 56/56/71 55/55/55 77/77/82
f 70/70/67 69/69/72 42/42/41
f 70/70/67 67/67/69 71/71/73
f 72/72/68 73/73/86 67/67/69
f 81/81/83 73/73/86 72/72/68
f 77/77/82 72/72/68 56/56/71
f 83/83/74 67/67/69 73/73/86
f 76/76/76 61/61/56 75/75/70
f 76/76/76 75/75/70 79/79/80
f 77/77/82 55/55/55 64/64/62
f 78/78/79 77/77/82 64/64/62
f 80/80/113 74/74/81 69/69/72
f 78/78/79 106/106/108 81/81/83
f 68/68/75 80/80/113 69/69/72
f 68/68/75 82/82/84 80/80/113
f 82/82/84 102/102/85 80/80/113
f 71/71/73 83/83/74 82/82/84
f 81/81/83 84/84/87 73/73/86
f 57/57/57 62/62/58 93/93/88
f 57/57/57 86/86/89 87/87/97
f 48/48/44 85/85/59 88/88/92
f 87/87/97 88/88/92 85/85/59
f 85/85/59 57/57/57 87/87/97
f 48/48/44 88/88/92 89/89/60
f 88/88/92 97/97/94 89/89/60
f 89/89/60 97/97/94 90/90/90
f 90/90/90 91/91/63 60/60/91
f 63/63/77 93/93/88 62/62/58
f 93/93/88 63/63/77 92/92/103
f 93/93/88 100/100/95 86/86/89
f 86/86/89 95/95/96 87/87/97
f 95/95/96 109/109/110 96/96/98
f 87/87/97 94/94/93 88/88/92
f 110/110/109 94/94/93 96/96/98
f 109/109/110 110/110/109 96/96/98
f 76/76/76 92/92/103 63/63/77
f 80/80/113 102/102/85 74/74/81
f 74/74/81 102/102/85 103/103/102
f 104/104/105 101/101/104 103/103/102
f 104/104/105 111/111/112 101/101/104
f 83/83/74 105/105/106 104/104/105
f 104/104/105 105/105/106 111/111/112
f 107/107/78 106/106/108 78/78/79
f 100/100/95 101/101/104 109/109/110
f 100/100/95 109/109/110 95/95/96
f 113/113/100 101/101/104 111/111/112
f 113/113/100 94/94/93 110/110/109
f 107/107/78 91/91/63 99/99/101
f 108/108/107 106/106/108 112/112/111
f 108/108/107 112/112/111 105/105/106
f 105/105/106 84/84/87 108/108/107
